<svg xmlns="http://www.w3.org/2000/svg" width="112.716" height="112.69" viewBox="0 0 112.716 112.69">
  <path id="Icon_awesome-instagram" data-name="Icon awesome-instagram" d="M56.365,29.691A28.892,28.892,0,1,0,85.258,58.583,28.847,28.847,0,0,0,56.365,29.691Zm0,47.676A18.784,18.784,0,1,1,75.149,58.583,18.818,18.818,0,0,1,56.365,77.367ZM93.178,28.509a6.739,6.739,0,1,1-6.739-6.739A6.723,6.723,0,0,1,93.178,28.509Zm19.136,6.84c-.427-9.027-2.489-17.024-9.1-23.612-6.588-6.588-14.585-8.65-23.612-9.1-9.3-.528-37.191-.528-46.494,0-9,.427-17,2.489-23.612,9.078S.843,26.3.391,35.323c-.528,9.3-.528,37.191,0,46.494.427,9.027,2.489,17.024,9.1,23.612s14.585,8.65,23.612,9.1c9.3.528,37.191.528,46.494,0,9.027-.427,17.024-2.489,23.612-9.1,6.588-6.588,8.65-14.585,9.1-23.612.528-9.3.528-37.165,0-46.469ZM100.295,91.8a19.017,19.017,0,0,1-10.712,10.712c-7.418,2.942-25.02,2.263-33.217,2.263s-25.825.654-33.217-2.263A19.017,19.017,0,0,1,12.436,91.8c-2.942-7.418-2.263-25.02-2.263-33.217s-.654-25.825,2.263-33.217A19.017,19.017,0,0,1,23.148,14.653c7.418-2.942,25.02-2.263,33.217-2.263s25.825-.654,33.217,2.263a19.017,19.017,0,0,1,10.712,10.712c2.942,7.418,2.263,25.02,2.263,33.217S103.237,84.408,100.295,91.8Z" transform="translate(0.005 -2.238)"/>
</svg>
