<svg xmlns="http://www.w3.org/2000/svg" width="225" height="180" viewBox="0 0 225 180">
  <path id="Icon_awesome-user-check" data-name="Icon awesome-user-check" d="M78.75,90a45,45,0,1,0-45-45A45,45,0,0,0,78.75,90Zm31.5,11.25h-5.871a61.2,61.2,0,0,1-51.258,0H47.25A47.262,47.262,0,0,0,0,148.5v14.625A16.879,16.879,0,0,0,16.875,180h123.75A16.879,16.879,0,0,0,157.5,163.125V148.5A47.262,47.262,0,0,0,110.25,101.25ZM223.8,56.109l-9.773-9.879a4.169,4.169,0,0,0-5.906-.035L171.281,82.758l-16-16.1a4.169,4.169,0,0,0-5.906-.035L139.5,76.43a4.169,4.169,0,0,0-.035,5.906l28.723,28.934a4.169,4.169,0,0,0,5.906.035L223.77,62.016a4.2,4.2,0,0,0,.035-5.906Z" fill="#fff"/>
</svg>
